<svg xmlns="http://www.w3.org/2000/svg" width="140.258" height="41.135" viewBox="0 0 140.258 41.135">
  <g id="Group_3446" data-name="Group 3446" transform="translate(-38.072 -6.872)">
    <path id="Path_259" data-name="Path 259" d="M39.622,48.007h6.183l5.9-22.634h7.258L60.309,20.2H39.427l-1.355,5.174h7.463Zm97.455,0h6.185L150.52,20.2h-6.176Zm-54.735,0h6.176l11.845-20.785.738,20.785h6.186l-1.5-41.135Zm-4.96-18.168c-.851,3.274-2.75,4.2-4.9,4.2H67.547l2.2-8.4h4.943c2.556,0,3.81-.162,2.689,4.192m6.068-.619C85.055,22.339,80.527,20.2,76,20.2H64.978L57.864,48.007h6.056l3.627-13.964,6.611,13.964h6.781l-4.517-9.528c3.537-1.353,5.764-3.822,7.028-9.258m44.115,5.8c-.285,1.113-.536,2.031-.778,2.789a11.6,11.6,0,0,1-.76,1.889,4.41,4.41,0,0,1-.91,1.223,5.072,5.072,0,0,1-1.586,1.021,5.339,5.339,0,0,1-1.98.343h-3.245l4.354-16.935h3.245a4.151,4.151,0,0,1,1.8.344,2.423,2.423,0,0,1,1.071,1.02,2.359,2.359,0,0,1,.262.84,4.781,4.781,0,0,1-.01,1.141c-.048.434-.142.959-.272,1.577s-.98,3.92-1.191,4.748m6.922-1.04c.282-1.042.547-2.061.789-3.063a19.472,19.472,0,0,0,.515-2.9,8.915,8.915,0,0,0-.132-2.7,6.075,6.075,0,0,0-3.872-4.486,11.106,11.106,0,0,0-3.9-.637H117.851l-7.178,27.808h10.048a14.164,14.164,0,0,0,4.225-.635,12.168,12.168,0,0,0,3.8-2.021,12.662,12.662,0,0,0,2.4-2.507,14.106,14.106,0,0,0,1.538-2.779,25.231,25.231,0,0,0,1-2.981c.274-1.021.537-2.051.8-3.1" fill="#e50019"/>
    <path id="Path_260" data-name="Path 260" d="M1205.507,175.9h6.776l-5.024-14.369,11.887-13.439h-6.624l-7.561,8.548-2.98-8.548h-6.765l4.728,13.56L1187.35,175.9h6.614l8.278-9.357Z" transform="translate(-1040.816 -127.889)" fill="#e50019"/>
  </g>
</svg>
